<?xml version="1.0" encoding="utf-8"?>
<svg version="1.1" id="Layer_1"
xmlns="http://www.w3.org/2000/svg"
xmlns:xlink="http://www.w3.org/1999/xlink"
width="310px" height="110px"
xml:space="preserve">
<g id="PathID_5050" transform="matrix(1, 0, 0, 1, -358.45, -382.4)">
<path style="fill:#FF9933;fill-opacity:1" d="M665.95 394.9L665.95 479.9Q665.95 489.9 655.95 489.9L370.95 489.9Q360.95 489.9 360.95 479.9L360.95 394.9Q360.95 384.9 370.95 384.9L655.95 384.9Q665.95 384.9 665.95 394.9" />
<path style="fill:none;stroke-width:5;stroke-linecap:round;stroke-linejoin:round;stroke-miterlimit:3;stroke:#FF6600;stroke-opacity:1" d="M655.95 384.9L370.95 384.9Q360.95 384.9 360.95 394.9L360.95 479.9Q360.95 489.9 370.95 489.9L655.95 489.9Q665.95 489.9 665.95 479.9L665.95 394.9Q665.95 384.9 655.95 384.9z" />
</g>
</svg>
