<?xml version="1.0" encoding="utf-8"?>
<svg version="1.1" id="Layer_1"
xmlns="http://www.w3.org/2000/svg"
xmlns:xlink="http://www.w3.org/1999/xlink"
width="181px" height="570px"
xml:space="preserve">
<g id="PathID_5149" transform="matrix(1, 0, 0, 1, -843, -35)">
<path style="fill:#0000FF;fill-opacity:1" d="M853 35L1024 35L1024 189L853 189Q843 189 843 179L843 45Q843 35 853 35" />
</g>
<g id="PathID_5150" transform="matrix(1, 0, 0, 1, -843, -35)">
<path style="fill:#FF0000;fill-opacity:1" d="M853 451L1024 451L1024 605L853 605Q843 605 843 595L843 461Q843 451 853 451" />
</g>
<g id="PathID_5151" transform="matrix(1, 0, 0, 1, -843, -35)">
<path style="fill:#000000;fill-opacity:1" d="M1022 187L872 187L872 37L1022 37L1022 187" />
</g>
<g id="PathID_5152" transform="matrix(1, 0, 0, 1, -843, -35)">
<path style="fill:#000000;fill-opacity:1" d="M1022 603L872 603L872 453L1022 453L1022 603" />
</g>
</svg>
