<?xml version="1.0" encoding="utf-8"?>
<svg version="1.1" id="Layer_1"
xmlns="http://www.w3.org/2000/svg"
xmlns:xlink="http://www.w3.org/1999/xlink"
width="310px" height="140px"
xml:space="preserve">
<g id="PathID_5048" transform="matrix(1, 0, 0, 1, -23.5, -392.4)">
<path style="fill:#66CC99;fill-opacity:1" d="M331 404.9L331 519.9Q331 529.9 321 529.9L36 529.9Q26 529.9 26 519.9L26 404.9Q26 394.9 36 394.9L321 394.9Q331 394.9 331 404.9" />
<path style="fill:none;stroke-width:5;stroke-linecap:round;stroke-linejoin:round;stroke-miterlimit:3;stroke:#336600;stroke-opacity:1" d="M321 394.9L36 394.9Q26 394.9 26 404.9L26 519.9Q26 529.9 36 529.9L321 529.9Q331 529.9 331 519.9L331 404.9Q331 394.9 321 394.9z" />
</g>
</svg>
