<?xml version="1.0" encoding="utf-8"?>
<svg version="1.1" id="Layer_1"
xmlns="http://www.w3.org/2000/svg"
xmlns:xlink="http://www.w3.org/1999/xlink"
width="200px" height="78px"
xml:space="preserve">
<g id="PathID_4781" transform="matrix(1, 0, 0, 1, 0, -456)">
<radialGradient
id="RadialGradID_2255" gradientUnits="userSpaceOnUse" gradientTransform="matrix(0.155945, 0, 0, 0.155945, 100, 563.5)" spreadMethod ="pad" cx="0" cy="0" r="819.2" fx="0" fy="0" >
<stop  offset="0"  style="stop-color:#336600;stop-opacity:1" />
<stop  offset="1"  style="stop-color:#66FF99;stop-opacity:1" />
</radialGradient>
<path style="fill:url(#RadialGradID_2255) " d="M200 494L200 515L0 515L0 494Q0 484 10 484L190 484Q200 484 200 494" />
</g>
<g id="PathID_4782" transform="matrix(1, 0, 0, 1, 0, -456)">
<radialGradient
id="RadialGradID_2256" gradientUnits="userSpaceOnUse" gradientTransform="matrix(0.155945, 0, 0, 0.155945, 100, 535.5)" spreadMethod ="pad" cx="0" cy="0" r="819.2" fx="0" fy="0" >
<stop  offset="0"  style="stop-color:#336600;stop-opacity:1" />
<stop  offset="1"  style="stop-color:#66FF99;stop-opacity:1" />
</radialGradient>
<path style="fill:url(#RadialGradID_2256) " d="M200 466L200 487L0 487L0 466Q0 456 10 456L190 456Q200 456 200 466" />
</g>
<g id="PathID_4783" transform="matrix(1, 0, 0, 1, 0, -456)">
<path style="fill:#FFFFFF;fill-opacity:1" d="M196 534L4 534Q0 534 0 530L0 516Q0 512 4 512L196 512Q200 512 200 516L200 530Q200 534 196 534" />
</g>
</svg>
