<?xml version="1.0" encoding="utf-8"?>
<svg version="1.1" id="Layer_1"
xmlns="http://www.w3.org/2000/svg"
xmlns:xlink="http://www.w3.org/1999/xlink"
width="35px" height="35px"
xml:space="preserve">
<g id="PathID_4768" transform="matrix(1, 0, 0, 1, 0, 0)">
<path style="fill:#333333;fill-opacity:0.101961" d="M25.7 8.7Q22.2 5.15 17.2 5.15Q12.2 5.15 8.7 8.7Q5.15 12.2 5.2 17.2Q5.15 22.2 8.7 25.75Q12.2 29.25 17.2 29.25Q22.2 29.25 25.7 25.75Q29.25 22.2 29.25 17.2Q29.25 12.2 25.7 8.7M34.4 17.2Q34.4 24.3 29.4 29.35Q24.35 34.4 17.2 34.4Q10.1 34.4 5.05 29.35Q0 24.3 0 17.2Q0 10.1 5.05 5.05Q10.1 0 17.2 0Q24.35 0 29.4 5.05Q34.4 10.1 34.4 17.2" />
</g>
</svg>
