<?xml version="1.0" encoding="utf-8"?>
<svg version="1.1" id="Layer_1"
xmlns="http://www.w3.org/2000/svg"
xmlns:xlink="http://www.w3.org/1999/xlink"
width="550px" height="135px"
xml:space="preserve">
<g id="PathID_4927" transform="matrix(1, 0, 0, 1, -243.5, -487.25)">
<path style="fill:#FFFFFF;fill-opacity:0.498039" d="M280 487.75L280 538.75L244 538.75L244 487.75L280 487.75" />
<path style="fill:none;stroke-width:1;stroke-linecap:round;stroke-linejoin:round;stroke-miterlimit:3;stroke:#009900;stroke-opacity:1" d="M280 487.75L280 538.75L244 538.75L244 487.75L280 487.75z" />
</g>
<g id="PathID_4928" transform="matrix(1, 0, 0, 1, -243.5, -487.25)">
<path style="fill:#FFFFFF;fill-opacity:0.498039" d="M316.65 487.75L316.65 538.75L280.65 538.75L280.65 487.75L316.65 487.75" />
<path style="fill:none;stroke-width:1;stroke-linecap:round;stroke-linejoin:round;stroke-miterlimit:3;stroke:#009900;stroke-opacity:1" d="M316.65 487.75L316.65 538.75L280.65 538.75L280.65 487.75L316.65 487.75z" />
</g>
<g id="PathID_4929" transform="matrix(1, 0, 0, 1, -243.5, -487.25)">
<path style="fill:#FFFFFF;fill-opacity:0.498039" d="M353.3 487.75L353.3 538.75L317.3 538.75L317.3 487.75L353.3 487.75" />
<path style="fill:none;stroke-width:1;stroke-linecap:round;stroke-linejoin:round;stroke-miterlimit:3;stroke:#009900;stroke-opacity:1" d="M353.3 487.75L353.3 538.75L317.3 538.75L317.3 487.75L353.3 487.75z" />
</g>
<g id="PathID_4930" transform="matrix(1, 0, 0, 1, -243.5, -487.25)">
<path style="fill:#FFFFFF;fill-opacity:0.498039" d="M389.9 487.75L389.9 538.75L353.9 538.75L353.9 487.75L389.9 487.75" />
<path style="fill:none;stroke-width:1;stroke-linecap:round;stroke-linejoin:round;stroke-miterlimit:3;stroke:#009900;stroke-opacity:1" d="M389.9 487.75L389.9 538.75L353.9 538.75L353.9 487.75L389.9 487.75z" />
</g>
<g id="PathID_4931" transform="matrix(1, 0, 0, 1, -243.5, -487.25)">
<path style="fill:#FFFFFF;fill-opacity:0.498039" d="M426.55 487.75L426.55 538.75L390.55 538.75L390.55 487.75L426.55 487.75" />
<path style="fill:none;stroke-width:1;stroke-linecap:round;stroke-linejoin:round;stroke-miterlimit:3;stroke:#009900;stroke-opacity:1" d="M426.55 487.75L426.55 538.75L390.55 538.75L390.55 487.75L426.55 487.75z" />
</g>
<g id="PathID_4932" transform="matrix(1, 0, 0, 1, -243.5, -487.25)">
<path style="fill:#FFFFFF;fill-opacity:0.498039" d="M463.2 487.75L463.2 538.75L427.2 538.75L427.2 487.75L463.2 487.75" />
<path style="fill:none;stroke-width:1;stroke-linecap:round;stroke-linejoin:round;stroke-miterlimit:3;stroke:#009900;stroke-opacity:1" d="M463.2 487.75L463.2 538.75L427.2 538.75L427.2 487.75L463.2 487.75z" />
</g>
<g id="PathID_4933" transform="matrix(1, 0, 0, 1, -243.5, -487.25)">
<path style="fill:#FFFFFF;fill-opacity:0.498039" d="M499.85 487.75L499.85 538.75L463.85 538.75L463.85 487.75L499.85 487.75" />
<path style="fill:none;stroke-width:1;stroke-linecap:round;stroke-linejoin:round;stroke-miterlimit:3;stroke:#009900;stroke-opacity:1" d="M499.85 487.75L499.85 538.75L463.85 538.75L463.85 487.75L499.85 487.75z" />
</g>
<g id="PathID_4934" transform="matrix(1, 0, 0, 1, -243.5, -487.25)">
<path style="fill:#FFFFFF;fill-opacity:0.498039" d="M536.5 487.75L536.5 538.75L500.5 538.75L500.5 487.75L536.5 487.75" />
<path style="fill:none;stroke-width:1;stroke-linecap:round;stroke-linejoin:round;stroke-miterlimit:3;stroke:#009900;stroke-opacity:1" d="M536.5 487.75L536.5 538.75L500.5 538.75L500.5 487.75L536.5 487.75z" />
</g>
<g id="PathID_4935" transform="matrix(1, 0, 0, 1, -243.5, -487.25)">
<path style="fill:#FFFFFF;fill-opacity:0.498039" d="M573.15 487.75L573.15 538.75L537.15 538.75L537.15 487.75L573.15 487.75" />
<path style="fill:none;stroke-width:1;stroke-linecap:round;stroke-linejoin:round;stroke-miterlimit:3;stroke:#009900;stroke-opacity:1" d="M573.15 487.75L573.15 538.75L537.15 538.75L537.15 487.75L573.15 487.75z" />
</g>
<g id="PathID_4936" transform="matrix(1, 0, 0, 1, -243.5, -487.25)">
<path style="fill:#FFFFFF;fill-opacity:0.498039" d="M609.8 487.75L609.8 538.75L573.8 538.75L573.8 487.75L609.8 487.75" />
<path style="fill:none;stroke-width:1;stroke-linecap:round;stroke-linejoin:round;stroke-miterlimit:3;stroke:#009900;stroke-opacity:1" d="M609.8 487.75L609.8 538.75L573.8 538.75L573.8 487.75L609.8 487.75z" />
</g>
<g id="PathID_4937" transform="matrix(1, 0, 0, 1, -243.5, -487.25)">
<path style="fill:#FFFFFF;fill-opacity:0.498039" d="M646.45 487.75L646.45 538.75L610.45 538.75L610.45 487.75L646.45 487.75" />
<path style="fill:none;stroke-width:1;stroke-linecap:round;stroke-linejoin:round;stroke-miterlimit:3;stroke:#009900;stroke-opacity:1" d="M646.45 487.75L646.45 538.75L610.45 538.75L610.45 487.75L646.45 487.75z" />
</g>
<g id="PathID_4938" transform="matrix(1, 0, 0, 1, -243.5, -487.25)">
<path style="fill:#FFFFFF;fill-opacity:0.498039" d="M683.05 487.75L683.05 538.75L647.05 538.75L647.05 487.75L683.05 487.75" />
<path style="fill:none;stroke-width:1;stroke-linecap:round;stroke-linejoin:round;stroke-miterlimit:3;stroke:#009900;stroke-opacity:1" d="M683.05 487.75L683.05 538.75L647.05 538.75L647.05 487.75L683.05 487.75z" />
</g>
<g id="PathID_4939" transform="matrix(1, 0, 0, 1, -243.5, -487.25)">
<path style="fill:#FFFFFF;fill-opacity:0.498039" d="M719.7 487.75L719.7 538.75L683.7 538.75L683.7 487.75L719.7 487.75" />
<path style="fill:none;stroke-width:1;stroke-linecap:round;stroke-linejoin:round;stroke-miterlimit:3;stroke:#009900;stroke-opacity:1" d="M719.7 487.75L719.7 538.75L683.7 538.75L683.7 487.75L719.7 487.75z" />
</g>
<g id="PathID_4940" transform="matrix(1, 0, 0, 1, -243.5, -487.25)">
<path style="fill:#FFFFFF;fill-opacity:0.498039" d="M756.35 487.75L756.35 538.75L720.35 538.75L720.35 487.75L756.35 487.75" />
<path style="fill:none;stroke-width:1;stroke-linecap:round;stroke-linejoin:round;stroke-miterlimit:3;stroke:#009900;stroke-opacity:1" d="M756.35 487.75L756.35 538.75L720.35 538.75L720.35 487.75L756.35 487.75z" />
</g>
<g id="PathID_4941" transform="matrix(1, 0, 0, 1, -243.5, -487.25)">
<path style="fill:#FFFFFF;fill-opacity:0.498039" d="M793 487.75L793 538.75L757 538.75L757 487.75L793 487.75" />
<path style="fill:none;stroke-width:1;stroke-linecap:round;stroke-linejoin:round;stroke-miterlimit:3;stroke:#009900;stroke-opacity:1" d="M793 487.75L793 538.75L757 538.75L757 487.75L793 487.75z" />
</g>
<g id="PathID_4942" transform="matrix(1, 0, 0, 1, -243.5, -487.25)">
<path style="fill:#FFFFFF;fill-opacity:0.498039" d="M280 570.25L280 621.25L244 621.25L244 570.25L280 570.25" />
<path style="fill:none;stroke-width:1;stroke-linecap:round;stroke-linejoin:round;stroke-miterlimit:3;stroke:#E5005B;stroke-opacity:1" d="M280 570.25L280 621.25L244 621.25L244 570.25L280 570.25z" />
</g>
<g id="PathID_4943" transform="matrix(1, 0, 0, 1, -243.5, -487.25)">
<path style="fill:#FFFFFF;fill-opacity:0.498039" d="M316.65 570.25L316.65 621.25L280.65 621.25L280.65 570.25L316.65 570.25" />
<path style="fill:none;stroke-width:1;stroke-linecap:round;stroke-linejoin:round;stroke-miterlimit:3;stroke:#E5005B;stroke-opacity:1" d="M316.65 570.25L316.65 621.25L280.65 621.25L280.65 570.25L316.65 570.25z" />
</g>
<g id="PathID_4944" transform="matrix(1, 0, 0, 1, -243.5, -487.25)">
<path style="fill:#FFFFFF;fill-opacity:0.498039" d="M353.3 570.25L353.3 621.25L317.3 621.25L317.3 570.25L353.3 570.25" />
<path style="fill:none;stroke-width:1;stroke-linecap:round;stroke-linejoin:round;stroke-miterlimit:3;stroke:#E5005B;stroke-opacity:1" d="M353.3 570.25L353.3 621.25L317.3 621.25L317.3 570.25L353.3 570.25z" />
</g>
<g id="PathID_4945" transform="matrix(1, 0, 0, 1, -243.5, -487.25)">
<path style="fill:#FFFFFF;fill-opacity:0.498039" d="M389.9 570.25L389.9 621.25L353.9 621.25L353.9 570.25L389.9 570.25" />
<path style="fill:none;stroke-width:1;stroke-linecap:round;stroke-linejoin:round;stroke-miterlimit:3;stroke:#E5005B;stroke-opacity:1" d="M389.9 570.25L389.9 621.25L353.9 621.25L353.9 570.25L389.9 570.25z" />
</g>
<g id="PathID_4946" transform="matrix(1, 0, 0, 1, -243.5, -487.25)">
<path style="fill:#FFFFFF;fill-opacity:0.498039" d="M426.55 570.25L426.55 621.25L390.55 621.25L390.55 570.25L426.55 570.25" />
<path style="fill:none;stroke-width:1;stroke-linecap:round;stroke-linejoin:round;stroke-miterlimit:3;stroke:#E5005B;stroke-opacity:1" d="M426.55 570.25L426.55 621.25L390.55 621.25L390.55 570.25L426.55 570.25z" />
</g>
<g id="PathID_4947" transform="matrix(1, 0, 0, 1, -243.5, -487.25)">
<path style="fill:#FFFFFF;fill-opacity:0.498039" d="M463.2 570.25L463.2 621.25L427.2 621.25L427.2 570.25L463.2 570.25" />
<path style="fill:none;stroke-width:1;stroke-linecap:round;stroke-linejoin:round;stroke-miterlimit:3;stroke:#E5005B;stroke-opacity:1" d="M463.2 570.25L463.2 621.25L427.2 621.25L427.2 570.25L463.2 570.25z" />
</g>
<g id="PathID_4948" transform="matrix(1, 0, 0, 1, -243.5, -487.25)">
<path style="fill:#FFFFFF;fill-opacity:0.498039" d="M499.85 570.25L499.85 621.25L463.85 621.25L463.85 570.25L499.85 570.25" />
<path style="fill:none;stroke-width:1;stroke-linecap:round;stroke-linejoin:round;stroke-miterlimit:3;stroke:#E5005B;stroke-opacity:1" d="M499.85 570.25L499.85 621.25L463.85 621.25L463.85 570.25L499.85 570.25z" />
</g>
<g id="PathID_4949" transform="matrix(1, 0, 0, 1, -243.5, -487.25)">
<path style="fill:#FFFFFF;fill-opacity:0.498039" d="M536.5 570.25L536.5 621.25L500.5 621.25L500.5 570.25L536.5 570.25" />
<path style="fill:none;stroke-width:1;stroke-linecap:round;stroke-linejoin:round;stroke-miterlimit:3;stroke:#E5005B;stroke-opacity:1" d="M536.5 570.25L536.5 621.25L500.5 621.25L500.5 570.25L536.5 570.25z" />
</g>
<g id="PathID_4950" transform="matrix(1, 0, 0, 1, -243.5, -487.25)">
<path style="fill:#FFFFFF;fill-opacity:0.498039" d="M573.15 570.25L573.15 621.25L537.15 621.25L537.15 570.25L573.15 570.25" />
<path style="fill:none;stroke-width:1;stroke-linecap:round;stroke-linejoin:round;stroke-miterlimit:3;stroke:#E5005B;stroke-opacity:1" d="M573.15 570.25L573.15 621.25L537.15 621.25L537.15 570.25L573.15 570.25z" />
</g>
<g id="PathID_4951" transform="matrix(1, 0, 0, 1, -243.5, -487.25)">
<path style="fill:#FFFFFF;fill-opacity:0.498039" d="M609.8 570.25L609.8 621.25L573.8 621.25L573.8 570.25L609.8 570.25" />
<path style="fill:none;stroke-width:1;stroke-linecap:round;stroke-linejoin:round;stroke-miterlimit:3;stroke:#E5005B;stroke-opacity:1" d="M609.8 570.25L609.8 621.25L573.8 621.25L573.8 570.25L609.8 570.25z" />
</g>
<g id="PathID_4952" transform="matrix(1, 0, 0, 1, -243.5, -487.25)">
<path style="fill:#FFFFFF;fill-opacity:0.498039" d="M646.45 570.25L646.45 621.25L610.45 621.25L610.45 570.25L646.45 570.25" />
<path style="fill:none;stroke-width:1;stroke-linecap:round;stroke-linejoin:round;stroke-miterlimit:3;stroke:#E5005B;stroke-opacity:1" d="M646.45 570.25L646.45 621.25L610.45 621.25L610.45 570.25L646.45 570.25z" />
</g>
<g id="PathID_4953" transform="matrix(1, 0, 0, 1, -243.5, -487.25)">
<path style="fill:#FFFFFF;fill-opacity:0.498039" d="M683.05 570.25L683.05 621.25L647.05 621.25L647.05 570.25L683.05 570.25" />
<path style="fill:none;stroke-width:1;stroke-linecap:round;stroke-linejoin:round;stroke-miterlimit:3;stroke:#E5005B;stroke-opacity:1" d="M683.05 570.25L683.05 621.25L647.05 621.25L647.05 570.25L683.05 570.25z" />
</g>
<g id="PathID_4954" transform="matrix(1, 0, 0, 1, -243.5, -487.25)">
<path style="fill:#FFFFFF;fill-opacity:0.498039" d="M719.7 570.25L719.7 621.25L683.7 621.25L683.7 570.25L719.7 570.25" />
<path style="fill:none;stroke-width:1;stroke-linecap:round;stroke-linejoin:round;stroke-miterlimit:3;stroke:#E5005B;stroke-opacity:1" d="M719.7 570.25L719.7 621.25L683.7 621.25L683.7 570.25L719.7 570.25z" />
</g>
<g id="PathID_4955" transform="matrix(1, 0, 0, 1, -243.5, -487.25)">
<path style="fill:#FFFFFF;fill-opacity:0.498039" d="M756.35 570.25L756.35 621.25L720.35 621.25L720.35 570.25L756.35 570.25" />
<path style="fill:none;stroke-width:1;stroke-linecap:round;stroke-linejoin:round;stroke-miterlimit:3;stroke:#E5005B;stroke-opacity:1" d="M756.35 570.25L756.35 621.25L720.35 621.25L720.35 570.25L756.35 570.25z" />
</g>
<g id="PathID_4956" transform="matrix(1, 0, 0, 1, -243.5, -487.25)">
<path style="fill:#FFFFFF;fill-opacity:0.498039" d="M793 570.25L793 621.25L757 621.25L757 570.25L793 570.25" />
<path style="fill:none;stroke-width:1;stroke-linecap:round;stroke-linejoin:round;stroke-miterlimit:3;stroke:#E5005B;stroke-opacity:1" d="M793 570.25L793 621.25L757 621.25L757 570.25L793 570.25z" />
</g>
</svg>
