<?xml version="1.0" encoding="utf-8"?>
<svg version="1.1" id="Layer_1"
xmlns="http://www.w3.org/2000/svg"
xmlns:xlink="http://www.w3.org/1999/xlink"
width="35px" height="35px"
xml:space="preserve">
<g id="PathID_4769" transform="matrix(1, 0, 0, 1, 0, 0)">
<path style="fill:#333333;fill-opacity:0" d="M9.9 32.2Q11.15 32.2 12 31.3Q12.9 30.45 12.9 29.2L12.9 28.5Q14.9 29.25 17.2 29.25Q22.2 29.25 25.7 25.75Q29.25 22.2 29.25 17.2Q29.25 12.2 25.7 8.7Q22.2 5.15 17.2 5.15Q14.9 5.15 12.9 5.9L12.9 5.2Q12.9 3.95 12 3.05Q11.15 2.2 9.9 2.2L8.75 2.2Q12.5 0 17.2 0Q24.35 0 29.4 5.05Q34.4 10.1 34.4 17.2Q34.4 24.3 29.4 29.35Q24.35 34.4 17.2 34.4Q12.5 34.4 8.75 32.2L9.9 32.2" />
<linearGradient
id="LinearGradID_2240" gradientUnits="userSpaceOnUse" gradientTransform="matrix(0.0090332, 0.0157166, -0.0158539, 0.0091095, 7.4, 17.2)" spreadMethod ="pad" x1="-819.2" y1="0" x2="819.2" y2="0" >
<stop  offset="0" style="stop-color:#333333;stop-opacity:0.2" />
<stop  offset="1" style="stop-color:#000000;stop-opacity:0" />
</linearGradient>
<path style="fill:url(#LinearGradID_2240) " d="M12.9 28.5L12.9 29.2Q12.9 30.45 12 31.3Q11.15 32.2 9.9 32.2L8.75 32.2Q6.75 31.05 5.05 29.35Q0 24.3 0 17.2Q0 10.1 5.05 5.05Q6.75 3.35 8.75 2.2L9.9 2.2Q11.15 2.2 12 3.05Q12.9 3.95 12.9 5.2L12.9 5.9Q10.6 6.8 8.7 8.7Q5.15 12.2 5.2 17.2Q5.15 22.2 8.7 25.75Q10.6 27.6 12.9 28.5" />
</g>
</svg>
