<?xml version="1.0" encoding="utf-8"?>
<svg version="1.1" id="Layer_1"
xmlns="http://www.w3.org/2000/svg"
xmlns:xlink="http://www.w3.org/1999/xlink"
width="1026px" height="642px"
xml:space="preserve">
<g id="PathID_4680" transform="matrix(1, 0, 0, 1, 0.5, 0.5)">
<path style="fill:#000000;fill-opacity:1" d="M1024 640L0 640L0 0L1024 0L1024 640" />
</g>
<g id="PathID_4681" transform="matrix(1, 0, 0, 1, 0.5, 0.5)">
<path style="fill:none;stroke-width:1;stroke-linecap:round;stroke-linejoin:round;stroke-miterlimit:3;stroke:#009900;stroke-opacity:0.498039" d="M0 20L1024.05 20" />
</g>
<g id="PathID_4682" transform="matrix(1, 0, 0, 1, 0.5, 0.5)">
<path style="fill:none;stroke-width:1;stroke-linecap:round;stroke-linejoin:round;stroke-miterlimit:3;stroke:#009900;stroke-opacity:0.498039" d="M0 40L1024.05 40" />
</g>
<g id="PathID_4683" transform="matrix(1, 0, 0, 1, 0.5, 0.5)">
<path style="fill:none;stroke-width:1;stroke-linecap:round;stroke-linejoin:round;stroke-miterlimit:3;stroke:#009900;stroke-opacity:0.498039" d="M0 60L1024.05 60" />
</g>
<g id="PathID_4684" transform="matrix(1, 0, 0, 1, 0.5, 0.5)">
<path style="fill:none;stroke-width:1;stroke-linecap:round;stroke-linejoin:round;stroke-miterlimit:3;stroke:#009900;stroke-opacity:0.498039" d="M0 80L1024.05 80" />
</g>
<g id="PathID_4685" transform="matrix(1, 0, 0, 1, 0.5, 0.5)">
<path style="fill:none;stroke-width:1;stroke-linecap:round;stroke-linejoin:round;stroke-miterlimit:3;stroke:#009900;stroke-opacity:0.498039" d="M0 100L1024.05 100" />
</g>
<g id="PathID_4686" transform="matrix(1, 0, 0, 1, 0.5, 0.5)">
<path style="fill:none;stroke-width:1;stroke-linecap:round;stroke-linejoin:round;stroke-miterlimit:3;stroke:#009900;stroke-opacity:0.498039" d="M0 120L1024.05 120" />
</g>
<g id="PathID_4687" transform="matrix(1, 0, 0, 1, 0.5, 0.5)">
<path style="fill:none;stroke-width:1;stroke-linecap:round;stroke-linejoin:round;stroke-miterlimit:3;stroke:#009900;stroke-opacity:0.498039" d="M0 140L1024.05 140" />
</g>
<g id="PathID_4688" transform="matrix(1, 0, 0, 1, 0.5, 0.5)">
<path style="fill:none;stroke-width:1;stroke-linecap:round;stroke-linejoin:round;stroke-miterlimit:3;stroke:#009900;stroke-opacity:0.498039" d="M0 160L1024.05 160" />
</g>
<g id="PathID_4689" transform="matrix(1, 0, 0, 1, 0.5, 0.5)">
<path style="fill:none;stroke-width:1;stroke-linecap:round;stroke-linejoin:round;stroke-miterlimit:3;stroke:#009900;stroke-opacity:0.498039" d="M0 180L1024.05 180" />
</g>
<g id="PathID_4690" transform="matrix(1, 0, 0, 1, 0.5, 0.5)">
<path style="fill:none;stroke-width:1;stroke-linecap:round;stroke-linejoin:round;stroke-miterlimit:3;stroke:#009900;stroke-opacity:0.498039" d="M0 200L1024.05 200" />
</g>
<g id="PathID_4691" transform="matrix(1, 0, 0, 1, 0.5, 0.5)">
<path style="fill:none;stroke-width:1;stroke-linecap:round;stroke-linejoin:round;stroke-miterlimit:3;stroke:#009900;stroke-opacity:0.498039" d="M0 220L1024.05 220" />
</g>
<g id="PathID_4692" transform="matrix(1, 0, 0, 1, 0.5, 0.5)">
<path style="fill:none;stroke-width:1;stroke-linecap:round;stroke-linejoin:round;stroke-miterlimit:3;stroke:#009900;stroke-opacity:0.498039" d="M0 240L1024.05 240" />
</g>
<g id="PathID_4693" transform="matrix(1, 0, 0, 1, 0.5, 0.5)">
<path style="fill:none;stroke-width:1;stroke-linecap:round;stroke-linejoin:round;stroke-miterlimit:3;stroke:#009900;stroke-opacity:0.498039" d="M0 260L1024.05 260" />
</g>
<g id="PathID_4694" transform="matrix(1, 0, 0, 1, 0.5, 0.5)">
<path style="fill:none;stroke-width:1;stroke-linecap:round;stroke-linejoin:round;stroke-miterlimit:3;stroke:#009900;stroke-opacity:0.498039" d="M0 280L1024.05 280" />
</g>
<g id="PathID_4695" transform="matrix(1, 0, 0, 1, 0.5, 0.5)">
<path style="fill:none;stroke-width:1;stroke-linecap:round;stroke-linejoin:round;stroke-miterlimit:3;stroke:#009900;stroke-opacity:0.498039" d="M0 300L1024.05 300" />
</g>
<g id="PathID_4696" transform="matrix(1, 0, 0, 1, 0.5, 0.5)">
<path style="fill:none;stroke-width:1;stroke-linecap:round;stroke-linejoin:round;stroke-miterlimit:3;stroke:#009900;stroke-opacity:0.498039" d="M0 320L1024.05 320" />
</g>
<g id="PathID_4697" transform="matrix(1, 0, 0, 1, 0.5, 0.5)">
<path style="fill:none;stroke-width:1;stroke-linecap:round;stroke-linejoin:round;stroke-miterlimit:3;stroke:#009900;stroke-opacity:0.498039" d="M0 340L1024.05 340" />
</g>
<g id="PathID_4698" transform="matrix(1, 0, 0, 1, 0.5, 0.5)">
<path style="fill:none;stroke-width:1;stroke-linecap:round;stroke-linejoin:round;stroke-miterlimit:3;stroke:#009900;stroke-opacity:0.498039" d="M0 360L1024.05 360" />
</g>
<g id="PathID_4699" transform="matrix(1, 0, 0, 1, 0.5, 0.5)">
<path style="fill:none;stroke-width:1;stroke-linecap:round;stroke-linejoin:round;stroke-miterlimit:3;stroke:#009900;stroke-opacity:0.498039" d="M0 380L1024.05 380" />
</g>
<g id="PathID_4700" transform="matrix(1, 0, 0, 1, 0.5, 0.5)">
<path style="fill:none;stroke-width:1;stroke-linecap:round;stroke-linejoin:round;stroke-miterlimit:3;stroke:#009900;stroke-opacity:0.498039" d="M0 400L1024.05 400" />
</g>
<g id="PathID_4701" transform="matrix(1, 0, 0, 1, 0.5, 0.5)">
<path style="fill:none;stroke-width:1;stroke-linecap:round;stroke-linejoin:round;stroke-miterlimit:3;stroke:#009900;stroke-opacity:0.498039" d="M0 420L1024.05 420" />
</g>
<g id="PathID_4702" transform="matrix(1, 0, 0, 1, 0.5, 0.5)">
<path style="fill:none;stroke-width:1;stroke-linecap:round;stroke-linejoin:round;stroke-miterlimit:3;stroke:#009900;stroke-opacity:0.498039" d="M0 440L1024.05 440" />
</g>
<g id="PathID_4703" transform="matrix(1, 0, 0, 1, 0.5, 0.5)">
<path style="fill:none;stroke-width:1;stroke-linecap:round;stroke-linejoin:round;stroke-miterlimit:3;stroke:#009900;stroke-opacity:0.498039" d="M0 460L1024.05 460" />
</g>
<g id="PathID_4704" transform="matrix(1, 0, 0, 1, 0.5, 0.5)">
<path style="fill:none;stroke-width:1;stroke-linecap:round;stroke-linejoin:round;stroke-miterlimit:3;stroke:#009900;stroke-opacity:0.498039" d="M0 480L1024.05 480" />
</g>
<g id="PathID_4705" transform="matrix(1, 0, 0, 1, 0.5, 0.5)">
<path style="fill:none;stroke-width:1;stroke-linecap:round;stroke-linejoin:round;stroke-miterlimit:3;stroke:#009900;stroke-opacity:0.498039" d="M0 500L1024.05 500" />
</g>
<g id="PathID_4706" transform="matrix(1, 0, 0, 1, 0.5, 0.5)">
<path style="fill:none;stroke-width:1;stroke-linecap:round;stroke-linejoin:round;stroke-miterlimit:3;stroke:#009900;stroke-opacity:0.498039" d="M0 520L1024.05 520" />
</g>
<g id="PathID_4707" transform="matrix(1, 0, 0, 1, 0.5, 0.5)">
<path style="fill:none;stroke-width:1;stroke-linecap:round;stroke-linejoin:round;stroke-miterlimit:3;stroke:#009900;stroke-opacity:0.498039" d="M0 540L1024.05 540" />
</g>
<g id="PathID_4708" transform="matrix(1, 0, 0, 1, 0.5, 0.5)">
<path style="fill:none;stroke-width:1;stroke-linecap:round;stroke-linejoin:round;stroke-miterlimit:3;stroke:#009900;stroke-opacity:0.498039" d="M0 560L1024.05 560" />
</g>
<g id="PathID_4709" transform="matrix(1, 0, 0, 1, 0.5, 0.5)">
<path style="fill:none;stroke-width:1;stroke-linecap:round;stroke-linejoin:round;stroke-miterlimit:3;stroke:#009900;stroke-opacity:0.498039" d="M0 580L1024.05 580" />
</g>
<g id="PathID_4710" transform="matrix(1, 0, 0, 1, 0.5, 0.5)">
<path style="fill:none;stroke-width:1;stroke-linecap:round;stroke-linejoin:round;stroke-miterlimit:3;stroke:#009900;stroke-opacity:0.498039" d="M0 600L1024.05 600" />
</g>
<g id="PathID_4711" transform="matrix(1, 0, 0, 1, 0.5, 0.5)">
<path style="fill:none;stroke-width:1;stroke-linecap:round;stroke-linejoin:round;stroke-miterlimit:3;stroke:#009900;stroke-opacity:0.498039" d="M0 620L1024.05 620" />
</g>
<g id="PathID_4712" transform="matrix(1, 0, 0, 1, 0.5, 0.5)">
<path style="fill:none;stroke-width:1;stroke-linecap:round;stroke-linejoin:round;stroke-miterlimit:3;stroke:#009900;stroke-opacity:0.498039" d="M22 0.05L22 638.05" />
</g>
<g id="PathID_4713" transform="matrix(1, 0, 0, 1, 0.5, 0.5)">
<path style="fill:none;stroke-width:1;stroke-linecap:round;stroke-linejoin:round;stroke-miterlimit:3;stroke:#009900;stroke-opacity:0.498039" d="M62 0.05L62 638" />
</g>
<g id="PathID_4714" transform="matrix(1, 0, 0, 1, 0.5, 0.5)">
<path style="fill:none;stroke-width:1;stroke-linecap:round;stroke-linejoin:round;stroke-miterlimit:3;stroke:#009900;stroke-opacity:0.498039" d="M82 0.05L82 638" />
</g>
<g id="PathID_4715" transform="matrix(1, 0, 0, 1, 0.5, 0.5)">
<path style="fill:none;stroke-width:1;stroke-linecap:round;stroke-linejoin:round;stroke-miterlimit:3;stroke:#009900;stroke-opacity:0.498039" d="M102 0.05L102 638" />
</g>
<g id="PathID_4716" transform="matrix(1, 0, 0, 1, 0.5, 0.5)">
<path style="fill:none;stroke-width:1;stroke-linecap:round;stroke-linejoin:round;stroke-miterlimit:3;stroke:#009900;stroke-opacity:0.498039" d="M122 0.05L122 638" />
</g>
<g id="PathID_4717" transform="matrix(1, 0, 0, 1, 0.5, 0.5)">
<path style="fill:none;stroke-width:1;stroke-linecap:round;stroke-linejoin:round;stroke-miterlimit:3;stroke:#009900;stroke-opacity:0.498039" d="M142 0.05L142 638" />
</g>
<g id="PathID_4718" transform="matrix(1, 0, 0, 1, 0.5, 0.5)">
<path style="fill:none;stroke-width:1;stroke-linecap:round;stroke-linejoin:round;stroke-miterlimit:3;stroke:#009900;stroke-opacity:0.498039" d="M162 0.05L162 638" />
</g>
<g id="PathID_4719" transform="matrix(1, 0, 0, 1, 0.5, 0.5)">
<path style="fill:none;stroke-width:1;stroke-linecap:round;stroke-linejoin:round;stroke-miterlimit:3;stroke:#009900;stroke-opacity:0.498039" d="M182 0.05L182 638" />
</g>
<g id="PathID_4720" transform="matrix(1, 0, 0, 1, 0.5, 0.5)">
<path style="fill:none;stroke-width:1;stroke-linecap:round;stroke-linejoin:round;stroke-miterlimit:3;stroke:#009900;stroke-opacity:0.498039" d="M202 0.05L202 638" />
</g>
<g id="PathID_4721" transform="matrix(1, 0, 0, 1, 0.5, 0.5)">
<path style="fill:none;stroke-width:1;stroke-linecap:round;stroke-linejoin:round;stroke-miterlimit:3;stroke:#009900;stroke-opacity:0.498039" d="M222 0.05L222 638" />
</g>
<g id="PathID_4722" transform="matrix(1, 0, 0, 1, 0.5, 0.5)">
<path style="fill:none;stroke-width:1;stroke-linecap:round;stroke-linejoin:round;stroke-miterlimit:3;stroke:#009900;stroke-opacity:0.498039" d="M242 0.05L242 638" />
</g>
<g id="PathID_4723" transform="matrix(1, 0, 0, 1, 0.5, 0.5)">
<path style="fill:none;stroke-width:1;stroke-linecap:round;stroke-linejoin:round;stroke-miterlimit:3;stroke:#009900;stroke-opacity:0.498039" d="M262 0.05L262 638" />
</g>
<g id="PathID_4724" transform="matrix(1, 0, 0, 1, 0.5, 0.5)">
<path style="fill:none;stroke-width:1;stroke-linecap:round;stroke-linejoin:round;stroke-miterlimit:3;stroke:#009900;stroke-opacity:0.498039" d="M282 0.05L282 638" />
</g>
<g id="PathID_4725" transform="matrix(1, 0, 0, 1, 0.5, 0.5)">
<path style="fill:none;stroke-width:1;stroke-linecap:round;stroke-linejoin:round;stroke-miterlimit:3;stroke:#009900;stroke-opacity:0.498039" d="M302 0.05L302 638" />
</g>
<g id="PathID_4726" transform="matrix(1, 0, 0, 1, 0.5, 0.5)">
<path style="fill:none;stroke-width:1;stroke-linecap:round;stroke-linejoin:round;stroke-miterlimit:3;stroke:#009900;stroke-opacity:0.498039" d="M322 0.05L322 638" />
</g>
<g id="PathID_4727" transform="matrix(1, 0, 0, 1, 0.5, 0.5)">
<path style="fill:none;stroke-width:1;stroke-linecap:round;stroke-linejoin:round;stroke-miterlimit:3;stroke:#009900;stroke-opacity:0.498039" d="M342 0.05L342 638" />
</g>
<g id="PathID_4728" transform="matrix(1, 0, 0, 1, 0.5, 0.5)">
<path style="fill:none;stroke-width:1;stroke-linecap:round;stroke-linejoin:round;stroke-miterlimit:3;stroke:#009900;stroke-opacity:0.498039" d="M362 0.05L362 638" />
</g>
<g id="PathID_4729" transform="matrix(1, 0, 0, 1, 0.5, 0.5)">
<path style="fill:none;stroke-width:1;stroke-linecap:round;stroke-linejoin:round;stroke-miterlimit:3;stroke:#009900;stroke-opacity:0.498039" d="M382 0.05L382 638" />
</g>
<g id="PathID_4730" transform="matrix(1, 0, 0, 1, 0.5, 0.5)">
<path style="fill:none;stroke-width:1;stroke-linecap:round;stroke-linejoin:round;stroke-miterlimit:3;stroke:#009900;stroke-opacity:0.498039" d="M402 0.05L402 638" />
</g>
<g id="PathID_4731" transform="matrix(1, 0, 0, 1, 0.5, 0.5)">
<path style="fill:none;stroke-width:1;stroke-linecap:round;stroke-linejoin:round;stroke-miterlimit:3;stroke:#009900;stroke-opacity:0.498039" d="M422 0.05L422 638" />
</g>
<g id="PathID_4732" transform="matrix(1, 0, 0, 1, 0.5, 0.5)">
<path style="fill:none;stroke-width:1;stroke-linecap:round;stroke-linejoin:round;stroke-miterlimit:3;stroke:#009900;stroke-opacity:0.498039" d="M442 0.05L442 638" />
</g>
<g id="PathID_4733" transform="matrix(1, 0, 0, 1, 0.5, 0.5)">
<path style="fill:none;stroke-width:1;stroke-linecap:round;stroke-linejoin:round;stroke-miterlimit:3;stroke:#009900;stroke-opacity:0.498039" d="M462 0.05L462 638" />
</g>
<g id="PathID_4734" transform="matrix(1, 0, 0, 1, 0.5, 0.5)">
<path style="fill:none;stroke-width:1;stroke-linecap:round;stroke-linejoin:round;stroke-miterlimit:3;stroke:#009900;stroke-opacity:0.498039" d="M482 0.05L482 638" />
</g>
<g id="PathID_4735" transform="matrix(1, 0, 0, 1, 0.5, 0.5)">
<path style="fill:none;stroke-width:1;stroke-linecap:round;stroke-linejoin:round;stroke-miterlimit:3;stroke:#009900;stroke-opacity:0.498039" d="M502 0.05L502 638" />
</g>
<g id="PathID_4736" transform="matrix(1, 0, 0, 1, 0.5, 0.5)">
<path style="fill:none;stroke-width:1;stroke-linecap:round;stroke-linejoin:round;stroke-miterlimit:3;stroke:#009900;stroke-opacity:0.498039" d="M522 0.05L522 638" />
</g>
<g id="PathID_4737" transform="matrix(1, 0, 0, 1, 0.5, 0.5)">
<path style="fill:none;stroke-width:1;stroke-linecap:round;stroke-linejoin:round;stroke-miterlimit:3;stroke:#009900;stroke-opacity:0.498039" d="M542 0.05L542 638" />
</g>
<g id="PathID_4738" transform="matrix(1, 0, 0, 1, 0.5, 0.5)">
<path style="fill:none;stroke-width:1;stroke-linecap:round;stroke-linejoin:round;stroke-miterlimit:3;stroke:#009900;stroke-opacity:0.498039" d="M562 0.05L562 638" />
</g>
<g id="PathID_4739" transform="matrix(1, 0, 0, 1, 0.5, 0.5)">
<path style="fill:none;stroke-width:1;stroke-linecap:round;stroke-linejoin:round;stroke-miterlimit:3;stroke:#009900;stroke-opacity:0.498039" d="M582 0.05L582 638" />
</g>
<g id="PathID_4740" transform="matrix(1, 0, 0, 1, 0.5, 0.5)">
<path style="fill:none;stroke-width:1;stroke-linecap:round;stroke-linejoin:round;stroke-miterlimit:3;stroke:#009900;stroke-opacity:0.498039" d="M602 0.05L602 638" />
</g>
<g id="PathID_4741" transform="matrix(1, 0, 0, 1, 0.5, 0.5)">
<path style="fill:none;stroke-width:1;stroke-linecap:round;stroke-linejoin:round;stroke-miterlimit:3;stroke:#009900;stroke-opacity:0.498039" d="M622 0L622 640" />
</g>
<g id="PathID_4742" transform="matrix(1, 0, 0, 1, 0.5, 0.5)">
<path style="fill:none;stroke-width:1;stroke-linecap:round;stroke-linejoin:round;stroke-miterlimit:3;stroke:#009900;stroke-opacity:0.498039" d="M642 0L642 640" />
</g>
<g id="PathID_4743" transform="matrix(1, 0, 0, 1, 0.5, 0.5)">
<path style="fill:none;stroke-width:1;stroke-linecap:round;stroke-linejoin:round;stroke-miterlimit:3;stroke:#009900;stroke-opacity:0.498039" d="M662 0L662 640" />
</g>
<g id="PathID_4744" transform="matrix(1, 0, 0, 1, 0.5, 0.5)">
<path style="fill:none;stroke-width:1;stroke-linecap:round;stroke-linejoin:round;stroke-miterlimit:3;stroke:#009900;stroke-opacity:0.498039" d="M682 0L682 640" />
</g>
<g id="PathID_4745" transform="matrix(1, 0, 0, 1, 0.5, 0.5)">
<path style="fill:none;stroke-width:1;stroke-linecap:round;stroke-linejoin:round;stroke-miterlimit:3;stroke:#009900;stroke-opacity:0.498039" d="M702 0L702 640" />
</g>
<g id="PathID_4746" transform="matrix(1, 0, 0, 1, 0.5, 0.5)">
<path style="fill:none;stroke-width:1;stroke-linecap:round;stroke-linejoin:round;stroke-miterlimit:3;stroke:#009900;stroke-opacity:0.498039" d="M722 0L722 640" />
</g>
<g id="PathID_4747" transform="matrix(1, 0, 0, 1, 0.5, 0.5)">
<path style="fill:none;stroke-width:1;stroke-linecap:round;stroke-linejoin:round;stroke-miterlimit:3;stroke:#009900;stroke-opacity:0.498039" d="M742 0L742 640" />
</g>
<g id="PathID_4748" transform="matrix(1, 0, 0, 1, 0.5, 0.5)">
<path style="fill:none;stroke-width:1;stroke-linecap:round;stroke-linejoin:round;stroke-miterlimit:3;stroke:#009900;stroke-opacity:0.498039" d="M762 0L762 640" />
</g>
<g id="PathID_4749" transform="matrix(1, 0, 0, 1, 0.5, 0.5)">
<path style="fill:none;stroke-width:1;stroke-linecap:round;stroke-linejoin:round;stroke-miterlimit:3;stroke:#009900;stroke-opacity:0.498039" d="M782 0L782 640" />
</g>
<g id="PathID_4750" transform="matrix(1, 0, 0, 1, 0.5, 0.5)">
<path style="fill:none;stroke-width:1;stroke-linecap:round;stroke-linejoin:round;stroke-miterlimit:3;stroke:#009900;stroke-opacity:0.498039" d="M802 0L802 640" />
</g>
<g id="PathID_4751" transform="matrix(1, 0, 0, 1, 0.5, 0.5)">
<path style="fill:none;stroke-width:1;stroke-linecap:round;stroke-linejoin:round;stroke-miterlimit:3;stroke:#009900;stroke-opacity:0.498039" d="M822 0L822 640" />
</g>
<g id="PathID_4752" transform="matrix(1, 0, 0, 1, 0.5, 0.5)">
<path style="fill:none;stroke-width:1;stroke-linecap:round;stroke-linejoin:round;stroke-miterlimit:3;stroke:#009900;stroke-opacity:0.498039" d="M842 0L842 640" />
</g>
<g id="PathID_4753" transform="matrix(1, 0, 0, 1, 0.5, 0.5)">
<path style="fill:none;stroke-width:1;stroke-linecap:round;stroke-linejoin:round;stroke-miterlimit:3;stroke:#009900;stroke-opacity:0.498039" d="M862 0L862 640" />
</g>
<g id="PathID_4754" transform="matrix(1, 0, 0, 1, 0.5, 0.5)">
<path style="fill:none;stroke-width:1;stroke-linecap:round;stroke-linejoin:round;stroke-miterlimit:3;stroke:#009900;stroke-opacity:0.498039" d="M882 0L882 640" />
</g>
<g id="PathID_4755" transform="matrix(1, 0, 0, 1, 0.5, 0.5)">
<path style="fill:none;stroke-width:1;stroke-linecap:round;stroke-linejoin:round;stroke-miterlimit:3;stroke:#009900;stroke-opacity:0.498039" d="M902 0L902 640" />
</g>
<g id="PathID_4756" transform="matrix(1, 0, 0, 1, 0.5, 0.5)">
<path style="fill:none;stroke-width:1;stroke-linecap:round;stroke-linejoin:round;stroke-miterlimit:3;stroke:#009900;stroke-opacity:0.498039" d="M922 0L922 640" />
</g>
<g id="PathID_4757" transform="matrix(1, 0, 0, 1, 0.5, 0.5)">
<path style="fill:none;stroke-width:1;stroke-linecap:round;stroke-linejoin:round;stroke-miterlimit:3;stroke:#009900;stroke-opacity:0.498039" d="M942 0L942 640" />
</g>
<g id="PathID_4758" transform="matrix(1, 0, 0, 1, 0.5, 0.5)">
<path style="fill:none;stroke-width:1;stroke-linecap:round;stroke-linejoin:round;stroke-miterlimit:3;stroke:#009900;stroke-opacity:0.498039" d="M962 0L962 640" />
</g>
<g id="PathID_4759" transform="matrix(1, 0, 0, 1, 0.5, 0.5)">
<path style="fill:none;stroke-width:1;stroke-linecap:round;stroke-linejoin:round;stroke-miterlimit:3;stroke:#009900;stroke-opacity:0.498039" d="M982 0L982 640" />
</g>
<g id="PathID_4760" transform="matrix(1, 0, 0, 1, 0.5, 0.5)">
<path style="fill:none;stroke-width:1;stroke-linecap:round;stroke-linejoin:round;stroke-miterlimit:3;stroke:#009900;stroke-opacity:0.498039" d="M1002 0L1002 640" />
</g>
<g id="PathID_4761" transform="matrix(1, 0, 0, 1, 0.5, 0.5)">
<path style="fill:none;stroke-width:1;stroke-linecap:round;stroke-linejoin:round;stroke-miterlimit:3;stroke:#009900;stroke-opacity:0.498039" d="M1022 0L1022 640" />
</g>
<g id="PathID_4762" transform="matrix(1, 0, 0, 1, 0.5, 0.5)">
<path style="fill:none;stroke-width:1;stroke-linecap:round;stroke-linejoin:round;stroke-miterlimit:3;stroke:#009900;stroke-opacity:0.498039" d="M2 0.05L2 638" />
</g>
<g id="PathID_4763" transform="matrix(1, 0, 0, 1, 0.5, 0.5)">
<path style="fill:none;stroke-width:1;stroke-linecap:round;stroke-linejoin:round;stroke-miterlimit:3;stroke:#009900;stroke-opacity:0.498039" d="M42 2.1L42 640.1" />
</g>
<g id="PathID_4764" transform="matrix(1, 0, 0, 1, 0.5, 0.5)">
<path style="fill:none;stroke-width:1;stroke-linecap:round;stroke-linejoin:round;stroke-miterlimit:3;stroke:#009900;stroke-opacity:0.498039" d="M0 0L1024.05 0" />
</g>
</svg>
